<svg xmlns="http://www.w3.org/2000/svg" width="70" height="70" viewBox="0 0 70 70"><defs><style>.a{fill:#f4f8f8;}.b{fill:#474fa0;}</style></defs><circle class="a" cx="35" cy="35" r="35"/><g transform="translate(22.472 18.769)"><path class="b" d="M9.706,22.718a3.158,3.158,0,0,1,2.4-1.107H31.216a3.162,3.162,0,0,1,3.123,3.656L31.561,42.839a3.147,3.147,0,0,1-3.123,2.668H14.887a3.147,3.147,0,0,1-3.123-2.668L8.986,25.267A3.161,3.161,0,0,1,9.706,22.718Zm1.728,2.161,2.779,17.572a.68.68,0,0,0,.675.577h13.55a.68.68,0,0,0,.675-.577L31.891,24.88a.683.683,0,0,0-.675-.791H12.11a.684.684,0,0,0-.676.791Z" transform="translate(-8.947 -12.685)"/><path class="b" d="M10.345,5.634C10.345,2.528,12.369,0,14.858,0H30.106C32.6,0,34.62,2.527,34.62,5.634V6.942H10.345Zm21.646-1.17c-.307-1.151-1.047-1.986-1.885-1.986H14.858c-.838,0-1.577.834-1.884,1.986H31.991Z" transform="translate(-9.767 0)"/><path class="b" d="M38.172,34.4a1.1,1.1,0,0,1,1.1,1.1V47.039a1.1,1.1,0,1,1-2.2,0V35.494A1.1,1.1,0,0,1,38.172,34.4Z" transform="translate(-25.456 -20.189)"/><path class="b" d="M25.717,34.518a1.1,1.1,0,0,1,1,1.189L25.566,47.2a1.1,1.1,0,0,1-1.093,1,.953.953,0,0,1-.1,0,1.1,1.1,0,0,1-1-1.19l1.149-11.5A1.094,1.094,0,0,1,25.717,34.518Z" transform="translate(-7.248 -20.258)"/><path class="b" d="M48.655,34.519a1.093,1.093,0,0,1,1.19,1l1.149,11.5a1.1,1.1,0,0,1-1,1.19.963.963,0,0,1-.1,0,1.1,1.1,0,0,1-1.093-1l-1.149-11.5A1.1,1.1,0,0,1,48.655,34.519Z" transform="translate(-41.553 -20.259)"/></g></svg>